PathFileType	4	(X/Y/Z)	/Users/itak/Documents/Research/Walk-IL/dataset/trc/00186_00008.trc
DataRate	CameraRate	NumFrames	NumMarkers	Units	OrigDataRate	OrigDataStartFrame	OrigNumFrames
100.000000	100.000000	4	53	mm	100.000000	390	780
Frame#	Time	RPSI			LPSI			L3			STRN			T10			C7			CLAV			RBAK			LBAK			LSHO			LUPA			LAEL			LAOL			LWTS			LWPS			LFRA			LIFD			LHPS			LHTS			RSHO			RUPA			RAEL			RAOL			RWTS			RWPS			RFRA			RIFD			RHTS			RHPS			RBHD			LFHD			RFHD			LBHD			LHIP			RHIP			RASI			LASI			LKNE			LTHI			LANK			LTIP			LTOE			LMT1			LMT5			LHEE			RKNE			RTHI			RANK			RTIP			RTOE			RMT1			RMT5			RHEE			
		X1	Y1	Z1	X2	Y2	Z2	X3	Y3	Z3	X4	Y4	Z4	X5	Y5	Z5	X6	Y6	Z6	X7	Y7	Z7	X8	Y8	Z8	X9	Y9	Z9	X10	Y10	Z10	X11	Y11	Z11	X12	Y12	Z12	X13	Y13	Z13	X14	Y14	Z14	X15	Y15	Z15	X16	Y16	Z16	X17	Y17	Z17	X18	Y18	Z18	X19	Y19	Z19	X20	Y20	Z20	X21	Y21	Z21	X22	Y22	Z22	X23	Y23	Z23	X24	Y24	Z24	X25	Y25	Z25	X26	Y26	Z26	X27	Y27	Z27	X28	Y28	Z28	X29	Y29	Z29	X30	Y30	Z30	X31	Y31	Z31	X32	Y32	Z32	X33	Y33	Z33	X34	Y34	Z34	X35	Y35	Z35	X36	Y36	Z36	X37	Y37	Z37	X38	Y38	Z38	X39	Y39	Z39	X40	Y40	Z40	X41	Y41	Z41	X42	Y42	Z42	X43	Y43	Z43	X44	Y44	Z44	X45	Y45	Z45	X46	Y46	Z46	X47	Y47	Z47	X48	Y48	Z48	X49	Y49	Z49	X50	Y50	Z50	X51	Y51	Z51	X52	Y52	Z52	X53	Y53	Z53	

391	3.9	349.0567626953125	1018.975463867188	-792.4420166015625	334.6864624023438	1007.920349121094	-672.9854125976562	342.8805236816406	1049.703735351562	-736.1204833984375	68.03159332275391	1250.358520507812	-744.1799926757812	370.9075012207031	1217.327026367188	-721.5350952148438	279.5661926269531	1477.057373046875	-691.8551635742188	85.13032531738281	1364.9638671875	-720.38671875	369.9362487792969	1321.59521484375	-811.9876098632812	281.5690307617188	1444.650146484375	-594.5999145507812	200.0605773925781	1418.34423828125	-522.945556640625	248.2829895019531	1284.484619140625	-462.1914978027344	268.2442626953125	1070.8095703125	-465.1669006347656	307.2749328613281	1064.632446289062	-545.0020141601562	167.1316528320312	833.5133666992188	-497.2256469726562	254.9086303710938	815.908203125	-471.7868957519531	263.4273071289062	956.9190063476562	-457.2716369628906	157.1904754638672	650.293701171875	-531.3955078125	236.0958862304688	746.2950439453125	-476.8353271484375	163.8950805664062	752.8172607421875	-481.7974243164062	231.4122924804688	1472.54150390625	-876.04638671875	261.3478393554688	1418.04296875	-950.115966796875	298.5371704101562	1151.66552734375	-1057.88427734375	293.3536376953125	1120.1982421875	-963.197509765625	157.5458679199219	926.2811279296875	-1099.342895507812	237.5062255859375	917.6785278320312	-1140.173706054688	275.2584533691406	1082.923461914062	-1092.663940429688	133.3724060058594	740.7737426757812	-1110.977416992188	131.8876190185547	836.2448120117188	-1129.979248046875	208.4876556396484	836.517578125	-1156.955688476562	196.2112426757812	1635.637451171875	-769.6792602539062	57.39313888549805	1660.820434570312	-604.2964477539062	28.80454444885254	1671.01171875	-731.3053588867188	230.6367797851562	1633.175415039062	-637.244384765625	214.4803161621094	939.97119140625	-565.6900634765625	211.5142517089844	982.7021484375	-935.2003784179688	120.4460067749023	1005.422485351562	-895.5584716796875	100.5760040283203	984.968994140625	-638.7847290039062	-27.70929718017578	498.3629150390625	-632.1241455078125	51.08607864379883	614.0028076171875	-594.4344482421875	-186.3131103515625	51.88233184814453	-679.516845703125	-98.55606079101562	278.9557495117188	-641.935302734375	-361.3578796386719	166.2039489746094	-622.7373657226562	-343.3420715332031	144.1913146972656	-683.3564453125	-261.094482421875	93.54035186767578	-602.6210327148438	-166.7040252685547	41.34374237060547	-762.0322875976562	286.8121032714844	490.0572204589844	-917.9122924804688	192.7030944824219	750.7278442382812	-953.4073486328125	541.4764404296875	55.1493034362793	-862.010986328125	315.9271240234375	366.2344665527344	-901.3585205078125	322.6109008789062	40.46806716918945	-908.9178466796875	356.45068359375	45.62571334838867	-848.9203491210938	452.5157775878906	29.10210418701172	-935.1801147460938	564.8544921875	68.51422119140625	-781.3651733398438	
392	3.91	337.9308166503906	1017.741088867188	-791.532958984375	323.7061157226562	1006.448974609375	-672.1681518554688	331.9295654296875	1048.221801757812	-735.283203125	57.35762023925781	1249.303955078125	-742.216552734375	360.4650268554688	1215.75537109375	-720.6348876953125	269.5478515625	1475.454711914062	-689.6148681640625	74.73892211914062	1363.742309570312	-717.8792114257812	359.2582092285156	1320.32763671875	-810.6965942382812	271.7997131347656	1442.592041015625	-592.5087280273438	190.5164184570312	1416.009887695312	-520.6195678710938	239.1177825927734	1281.856201171875	-460.59912109375	259.9159851074219	1068.62255859375	-464.2406921386719	298.1822814941406	1062.741333007812	-544.5393676757812	162.9033355712891	829.4458618164062	-494.7820739746094	251.5979919433594	813.7529907226562	-470.5634155273438	257.212890625	954.9779663085938	-456.3626403808594	156.8915405273438	645.906005859375	-528.9171752929688	234.2760620117188	743.6758422851562	-475.5206604003906	161.6893310546875	748.6116333007812	-479.2666931152344	220.6911163330078	1471.737915039062	-873.7230224609375	250.3380279541016	1417.286987304688	-947.9762573242188	287.0823974609375	1150.72265625	-1055.401123046875	281.7749633789062	1119.24462890625	-960.6126098632812	146.6358947753906	924.9210815429688	-1096.620971679688	226.6287994384766	916.585693359375	-1137.499755859375	263.89697265625	1081.948486328125	-1090.140258789062	121.9488830566406	739.4559936523438	-1108.162109375	121.3324356079102	834.734619140625	-1127.2060546875	197.8513946533203	835.3257446289062	-1154.260009765625	186.0900268554688	1634.231567382812	-767.0197143554688	48.62068939208984	1659.578735351562	-600.523193359375	19.14307594299316	1670.031860351562	-727.3135375976562	221.5740509033203	1631.51123046875	-634.8810424804688	203.2594757080078	938.820068359375	-565.0367431640625	200.51904296875	981.7069702148438	-934.3802490234375	109.6206359863281	1004.396545410156	-894.8526000976562	89.33103942871094	983.8146362304688	-638.1546630859375	-38.95288467407227	497.4033203125	-629.2064208984375	39.52959823608398	613.4912109375	-592.6652221679688	-194.7079162597656	49.80281066894531	-676.1492919921875	-108.5589981079102	277.2779541015625	-639.0543212890625	-369.0904235839844	163.1813354492188	-616.7778930664062	-352.2383422851562	141.1989288330078	-677.6449584960938	-268.3834533691406	91.05206298828125	-598.3256225585938	-176.3073425292969	39.01105880737305	-759.3168334960938	278.3130493164062	489.6063842773438	-918.7283935546875	182.6664428710938	749.9214477539062	-953.2626953125	540.661376953125	58.57072067260742	-862.7728881835938	309.3286437988281	365.9547119140625	-902.4219970703125	322.4279174804688	40.41542816162109	-908.9569702148438	356.1285705566406	45.62907791137695	-849.1195678710938	451.8235168457031	29.69842147827148	-935.2459106445312	564.04638671875	73.36332702636719	-782.278564453125	
393	3.92	326.468994140625	1016.7412109375	-790.3429565429688	312.3058471679688	1005.191162109375	-671.0924682617188	320.613525390625	1046.9228515625	-734.192138671875	46.46915054321289	1248.549438476562	-740.0791015625	349.7174987792969	1214.314453125	-719.4757690429688	259.4013061523438	1474.041015625	-687.1602783203125	64.18154907226562	1362.814453125	-715.1755981445312	348.3780822753906	1319.22412109375	-809.1510620117188	261.8732299804688	1440.756958007812	-590.2047729492188	180.7862396240234	1413.921508789062	-518.0948486328125	229.7269287109375	1279.478149414062	-458.7798767089844	251.359375	1066.700805664062	-463.117431640625	288.8682861328125	1061.13525390625	-543.8861694335938	158.5553894042969	825.7266235351562	-492.1852722167969	248.1149139404297	811.9908447265625	-469.2108154296875	250.819091796875	953.4164428710938	-455.3237915039062	156.6096649169922	641.9319458007812	-526.34619140625	232.3667602539062	741.5224609375	-474.1312255859375	159.3720092773438	744.7950439453125	-476.5863342285156	209.871826171875	1471.1708984375	-871.1610107421875	239.2334594726562	1416.805541992188	-945.6048583984375	275.637451171875	1150.035400390625	-1052.655151367188	270.2464599609375	1118.614990234375	-957.7559204101562	135.7542266845703	923.7869262695312	-1093.624755859375	215.8139038085938	915.7107543945312	-1134.499633789062	252.5774993896484	1081.213623046875	-1087.344604492188	110.589111328125	738.3016357421875	-1104.905639648438	110.8290786743164	833.433837890625	-1124.096557617188	187.2864379882812	834.3302612304688	-1151.1982421875	175.8342590332031	1633.080078125	-764.0951538085938	39.69055557250977	1658.525756835938	-596.5079956054688	9.383086204528809	1669.33154296875	-723.0745849609375	212.3774261474609	1630.023193359375	-632.2698974609375	191.5689849853516	937.89697265625	-564.2000122070312	189.2920379638672	980.9739990234375	-933.3589477539062	98.63739776611328	1003.684753417969	-893.99853515625	77.68474578857422	982.8847045898438	-637.3912963867188	-50.18719482421875	496.3426208496094	-625.9974365234375	27.79949188232422	613.09423828125	-590.6226806640625	-201.5231628417969	47.2567024230957	-673.0238037109375	-117.9051284790039	275.2679443359375	-636.1871337890625	-375.5614318847656	158.9779815673828	-610.95703125	-359.8023986816406	137.1021118164062	-672.0960083007812	-274.3276672363281	87.66616058349609	-594.3905639648438	-184.3578033447266	36.28850173950195	-756.8953857421875	269.5865173339844	489.4579467773438	-919.6176147460938	172.4082794189453	749.4014892578125	-953.0701293945312	539.6620483398438	62.39873504638672	-863.6923217773438	302.50537109375	365.99462890625	-903.621826171875	322.2139282226562	40.37107467651367	-908.982666015625	355.768310546875	45.6859245300293	-849.3519287109375	450.993408203125	30.44170761108398	-935.3705444335938	562.9733276367188	78.79251861572266	-783.3796997070312	
394	3.93	314.6263732910156	1015.973449707031	-788.90625	300.4721069335938	1004.145629882812	-669.7764282226562	308.8949584960938	1045.79248046875	-732.8728637695312	35.35176849365234	1248.110473632812	-737.7426147460938	338.6496276855469	1212.978637695312	-718.0662231445312	249.1440734863281	1472.809448242188	-684.504150390625	53.46142959594727	1362.185302734375	-712.2740478515625	337.2915649414062	1318.2529296875	-807.3564453125	251.8140563964844	1439.137451171875	-587.69921875	170.8931121826172	1412.091796875	-515.3733520507812	220.1402435302734	1277.3720703125	-456.7348327636719	242.5784912109375	1065.047729492188	-461.7910461425781	279.3440856933594	1059.822387695312	-543.0331420898438	154.1003875732422	822.370849609375	-489.450439453125	244.4145355224609	810.638427734375	-467.7220764160156	244.2202301025391	952.2317504882812	-454.1421203613281	156.2735595703125	638.4078369140625	-523.7035522460938	230.2902221679688	739.8458862304688	-472.6148071289062	156.9042510986328	741.3943481445312	-473.7894287109375	198.962890625	1470.816040039062	-868.3727416992188	228.0395050048828	1416.569213867188	-943.0127563476562	264.203369140625	1149.589721679688	-1049.696533203125	258.8143615722656	1118.294189453125	-954.6734008789062	124.8848342895508	922.874755859375	-1090.36328125	205.0261688232422	915.0370483398438	-1131.212280273438	241.2858276367188	1080.702026367188	-1084.313354492188	99.35212707519531	737.2933349609375	-1101.218017578125	100.3431091308594	832.325439453125	-1120.6474609375	176.7502746582031	833.513427734375	-1147.787475585938	165.4560852050781	1632.187622070312	-760.9130249023438	30.60639572143555	1657.651123046875	-592.2486572265625	-0.4728966355323792	1668.895874023438	-718.58642578125	203.0570526123047	1628.716674804688	-629.4193115234375	179.4183502197266	937.2101440429688	-563.1542358398438	177.7258605957031	980.4844970703125	-932.139892578125	87.4254150390625	1003.266723632812	-892.9501342773438	65.624755859375	982.1760864257812	-636.4511108398438	-61.2684211730957	495.1217651367188	-622.5758056640625	16.00381851196289	612.7388305664062	-588.3352661132812	-206.8971557617188	44.35358047485352	-670.238525390625	-126.5713500976562	272.9464721679688	-633.4000854492188	-380.8382568359375	153.6972961425781	-605.1925659179688	-366.1387023925781	132.0386199951172	-666.6611938476562	-278.954345703125	83.50417327880859	-590.8123779296875	-191.0248718261719	33.35884857177734	-754.83154296875	260.6039428710938	489.6055603027344	-920.5658569335938	161.8667755126953	749.1449584960938	-952.7975463867188	538.4290161132812	66.61431884765625	-864.7693481445312	295.437744140625	366.3631896972656	-904.9522705078125	321.9809875488281	40.34325408935547	-908.9906616210938	355.3654174804688	45.80400848388672	-849.611572265625	450.0331420898438	31.33122444152832	-935.5611572265625	561.569091796875	84.78347778320312	-784.6738891601562	
